#!OML:ASF X:\für Bonn\!DataBase\2005_08_12_Daniel\c3d\Daniel.ASF
:FULLY-SPECIFIED
:DEGREES
2624
root -22.4463 17.6384 -36.1976 -179.343 177.706 -183.033
lowerback 10.1835 -2.07619 5.62987
upperback 4.20803 -2.20854 0.319364
thorax -1.51264 -1.05435 -2.57939
lowerneck -2.37478 5.76302 -2.30576
upperneck 10.4168 9.05262 -11.345
head 3.93986 3.8741 -2.68869
rclavicle -3.45264e-014 1.03865e-014
rhumerus -39.0755 9.01279 -90.6367
rradius 48.2476
rwrist 11.1362
rhand -19.0428 26.4253
rfingers 7.12502
rthumb 7.26383 -3.42999
lclavicle -3.45264e-014 1.03865e-014
lhumerus -43.1317 9.99921 75.8313
lradius 42.4139
lwrist 3.62321
lhand -7.4769 -7.16682
lfingers 7.12502
lthumb 18.4121 21.9818
rfemur -5.15748 11.5017 22.9211
rtibia 32.11
rfoot -31.7616 -16.2391
rtoes -10.0893
lfemur -12.8541 9.09559 -16.8947
ltibia 60.7354
lfoot -23.1889 -4.21529
ltoes -15.1536
2625
root -22.462 17.6269 -36.2076 -179.299 176.359 -183.235
lowerback 10.0309 -2.11903 5.9992
upperback 4.22708 -2.23801 0.412488
thorax -1.41964 -1.06276 -2.6909
lowerneck -2.3948 5.57925 -2.62327
upperneck 10.4469 8.8065 -11.1235
head 3.91834 3.751 -2.58246
rclavicle 3.61291e-014 -5.36719e-015
rhumerus -39.1623 9.25395 -91.4086
rradius 48.6753
rwrist 10.6544
rhand -19.1971 26.4605
rfingers 7.12502
rthumb 7.11485 -3.39987
lclavicle 3.61291e-014 -5.36719e-015
lhumerus -43.4158 10.1229 76.3211
lradius 43.5251
lwrist 4.24989
lhand -7.91843 -7.43966
lfingers 7.12502
lthumb 17.9873 21.7486
rfemur -4.90473 11.5615 23.0058
rtibia 31.9917
rfoot -31.4058 -15.3697
rtoes -10.3875
lfemur -13.1336 9.20973 -16.7176
ltibia 61.2632
lfoot -23.0069 -4.43696
ltoes -15.355
2626
root -22.4749 17.6109 -36.219 -179.296 175.07 -183.488
lowerback 9.94933 -2.1441 6.40157
upperback 4.23171 -2.23646 0.501155
thorax -1.37887 -1.0568 -2.82669
lowerneck -2.34286 5.38754 -2.74321
upperneck 10.3977 8.53734 -11.0165
head 3.87295 3.62568 -2.54595
rclavicle -1.81671e-014 2.91965e-015
rhumerus -39.2113 9.45797 -92.2079
rradius 49.0399
rwrist 10.1778
rhand -19.3421 26.5514
rfingers 7.12502
rthumb 6.9749 -3.31369
lclavicle -1.81671e-014 2.91965e-015
lhumerus -43.7197 10.1259 76.7996
lradius 44.614
lwrist 5.26065
lhand -8.28856 -7.67454
lfingers 7.12502
lthumb 17.6312 21.5461
rfemur -4.60261 11.635 23.1085
rtibia 31.8112
rfoot -30.88 -14.363
rtoes -11.3135
lfemur -13.4066 9.31668 -16.4744
ltibia 61.8037
lfoot -22.8503 -4.69156
ltoes -15.2823
2627
root -22.4853 17.5984 -36.2292 -179.26 173.817 -183.742
lowerback 9.8566 -2.16964 6.7606
upperback 4.19436 -2.23944 0.594914
thorax -1.37463 -1.05547 -2.93177
lowerneck -2.2329 5.22161 -2.88822
upperneck 10.095 8.24972 -10.6324
head 4.14334 3.53698 -2.7285
rclavicle -2.07513e-014 3.76448e-015
rhumerus -39.3275 9.66552 -92.9959
rradius 49.4465
rwrist 9.82117
rhand -19.4921 26.7077
rfingers 7.12502
rthumb 6.83011 -3.16208
lclavicle -2.07513e-014 3.76448e-015
lhumerus -44.088 10.1192 77.2749
lradius 45.7209
lwrist 6.58498
lhand -8.66348 -7.8699
lfingers 7.12502
lthumb 17.2703 21.3827
rfemur -4.31992 11.7848 23.1911
rtibia 31.6137
rfoot -30.3062 -13.1144
rtoes -12.0911
lfemur -13.7158 9.42492 -16.2252
ltibia 62.3187
lfoot -22.6524 -5.00992
ltoes -15.0864
2628
root -22.493 17.5829 -36.2416 -179.24 172.556 -184.035
lowerback 9.74363 -2.20036 7.12831
upperback 4.20186 -2.25241 0.706663
thorax -1.31287 -1.05627 -3.0231
lowerneck -2.14331 5.04805 -2.86257
upperneck 10.0041 7.99955 -10.6154
head 4.08047 3.42498 -2.73999
rclavicle 2.30528e-014 6.21202e-016
rhumerus -39.2455 9.99067 -93.7936
rradius 49.7412
rwrist 9.41489
rhand -19.6414 26.7691
rfingers 7.12502
rthumb 6.68603 -3.1053
lclavicle 2.30528e-014 6.21202e-016
lhumerus -44.4054 10.5072 77.6577
lradius 46.756
lwrist 7.64892
lhand -8.87018 -8.11645
lfingers 7.12502
lthumb 17.0714 21.1535
rfemur -4.02399 12.0057 23.3335
rtibia 31.4109
rfoot -29.7595 -11.8091
rtoes -12.6734
lfemur -14.0428 9.42769 -15.9524
ltibia 62.8234
lfoot -22.4371 -5.25916
ltoes -14.8456
2629
root -22.4989 17.5646 -36.2556 -179.215 171.373 -184.297
lowerback 9.68623 -2.20198 7.40656
upperback 4.16399 -2.22825 0.841872
thorax -1.3215 -1.04286 -3.04159
lowerneck -2.02884 4.88459 -2.88178
upperneck 9.91507 7.76166 -10.5759
head 4.01067 3.31879 -2.73514
rclavicle 4.02787e-014 -3.42904e-015
rhumerus -39.2507 10.4 -94.5173
rradius 50.0926
rwrist 9.01437
rhand -19.6632 26.8195
rfingers 7.12502
rthumb 6.66499 -3.05559
lclavicle 4.02787e-014 -3.42904e-015
lhumerus -44.7976 11.2119 77.9708
lradius 47.7454
lwrist 8.64975
lhand -9.03401 -8.29126
lfingers 7.12502
lthumb 16.9137 20.9922
rfemur -3.74336 12.3501 23.4395
rtibia 31.2176
rfoot -29.3567 -10.5129
rtoes -13.1143
lfemur -14.3768 9.45587 -15.712
ltibia 63.2921
lfoot -22.1931 -5.51598
ltoes -14.9538
2630
root -22.5024 17.5457 -36.2697 -179.224 170.199 -184.595
lowerback 9.63135 -2.22275 7.71915
upperback 4.14863 -2.22745 0.972801
thorax -1.31148 -1.03954 -3.08115
lowerneck -1.91049 4.72497 -2.86452
upperneck 9.82256 7.52738 -10.5472
head 3.94176 3.21534 -2.74011
rclavicle 2.46741e-014 3.00165e-014
rhumerus -39.2475 10.8939 -95.2362
rradius 50.5231
rwrist 8.61677
rhand -19.5837 26.8679
rfingers 7.12502
rthumb 6.74171 -3.00476
lclavicle 2.46741e-014 3.00165e-014
lhumerus -45.1795 11.9429 78.2872
lradius 48.7234
lwrist 9.73121
lhand -9.19556 -8.48456
lfingers 7.12502
lthumb 16.7582 20.8122
rfemur -3.44522 12.7306 23.6187
rtibia 31.0294
rfoot -29.1476 -9.48772
rtoes -14.0731
lfemur -14.6758 9.45251 -15.411
ltibia 63.7416
lfoot -21.9371 -5.75366
ltoes -15.2186
2631
root -22.5048 17.5271 -36.2862 -179.195 169.043 -184.912
lowerback 9.57658 -2.22138 8.0743
upperback 4.10676 -2.19297 1.08506
thorax -1.3273 -1.02058 -3.16708
lowerneck -1.7725 4.55059 -2.84232
upperneck 9.68289 7.26629 -10.516
head 3.85118 3.10178 -2.7457
rclavicle 1.54058e-015 9.83984e-015
rhumerus -39.2789 11.3697 -95.9431
rradius 51.047
rwrist 8.32687
rhand -19.4709 26.8955
rfingers 7.12502
rthumb 6.85056 -2.97369
lclavicle 1.54058e-015 9.83984e-015
lhumerus -45.5567 12.5507 78.5978
lradius 49.6717
lwrist 10.8152
lhand -9.27501 -8.58314
lfingers 7.12502
lthumb 16.6817 20.7201
rfemur -3.20904 13.1281 23.8265
rtibia 30.8279
rfoot -29.0271 -8.50065
rtoes -14.4841
lfemur -15.0786 9.42204 -15.0891
ltibia 64.2082
lfoot -21.6439 -6.00104
ltoes -15.1974
2632
root -22.5061 17.5057 -36.3027 -179.166 167.936 -185.267
lowerback 9.53465 -2.20625 8.47606
upperback 4.03834 -2.13398 1.18273
thorax -1.37654 -0.991083 -3.29593
lowerneck -1.69071 4.36326 -2.79953
upperneck 9.62754 6.99536 -10.4353
head 3.79935 2.97974 -2.7374
rclavicle 6.58474e-015 -6.95746e-016
rhumerus -39.3323 11.9001 -96.6295
rradius 51.6218
rwrist 8.04453
rhand -19.3169 26.8632
rfingers 7.12502
rthumb 6.99921 -3.0011
lclavicle 6.58474e-015 -6.95746e-016
lhumerus -45.9972 13.0385 78.8966
lradius 50.6522
lwrist 12.0258
lhand -9.43857 -8.69208
lfingers 7.12502
lthumb 16.5242 20.6243
rfemur -2.94079 13.7545 24.1231
rtibia 30.5899
rfoot -29.171 -7.63099
rtoes -14.1475
lfemur -15.5117 9.42451 -14.7257
ltibia 64.7175
lfoot -21.466 -6.18453
ltoes -15.1685
